# xmcd
# 
# Track frame offsets:
#     150
#     30567
#     45248
#     74117
#     90628
#     95235
#     109992
#     127578
#     146130
#     163530
#     184692
#     204935
#     210037
#     234857
#     242267
#     307779
# 
# Disc length: 4214
# 
# Revision: 0
# Processed by: cddbd v1.5.2PL0 Copyright (c) Steve Scherf et al.
# Submitted via: fre:ac v1.0.17
# 
DISCID=c5107410
DTITLE=Peter Carlson and de Blå Grodorn - På scen
DYEAR=0
DGENRE=Blues
TTITLE0=Epistel nr 48
TTITLE1=Trouble in Mind
TTITLE2=Jag spelar på fattigpianot
TTITLE3=Aria nr 9 ur Figaros Bröllop
TTITLE4=Dansen gå på Svinsta skär.mp3
TTITLE5=Fyra små vedträn
TTITLE6=En dag pa teatern
TTITLE7=Än'tä könstut?
TTITLE8=Polska efter Sven Gref
TTITLE9=Mystiska mannen
TTITLE10=Är Det Sport
TTITLE11=Ishockeypolkan
TTITLE12=Moon over Bourdon Street
TTITLE13=Fabrikorn
TTITLE14=Music Train
TTITLE15=Älskliga blommor små
EXTD=
EXTT0=
EXTT1=
EXTT2=
EXTT3=
EXTT4=
EXTT5=
EXTT6=
EXTT7=
EXTT8=
EXTT9=
EXTT10=
EXTT11=
EXTT12=
EXTT13=
EXTT14=
EXTT15=
PLAYORDER=
